<svg width="12" height="17" viewBox="0 0 12 17" fill="none" xmlns="http://www.w3.org/2000/svg">
<path d="M6 0.113881C8.0557 0.113881 9.7215 1.78025 9.7215 3.83505C9.7215 5.89035 8.0557 7.55623 6 7.55623C3.94529 7.55623 2.27948 5.89035 2.27948 3.83505C2.27948 1.78025 3.94529 0.113881 6 0.113881Z" fill="white"/>
<path d="M5.99753 16.3086C3.94727 16.3086 2.06947 15.5619 0.62109 14.326C0.268262 14.025 0.0646691 13.5837 0.0646691 13.1207C0.0646691 11.0367 1.75123 9.36888 3.83559 9.36888H8.1654C10.2503 9.36888 11.9304 11.0367 11.9304 13.1207C11.9304 13.5842 11.7278 14.0245 11.3745 14.3255C9.92658 15.5619 8.04828 16.3086 5.99753 16.3086Z" fill="white"/>
</svg>
