<svg width="18" height="18" viewBox="0 0 18 18" fill="none" xmlns="http://www.w3.org/2000/svg">
<path d="M17.0285 8.26896C16.4447 7.26248 15.5205 6.35751 14.3811 5.66354V3.83407C14.3811 2.74482 13.5804 1.76952 12.126 1.08771C10.8626 0.495388 9.20067 0.169189 7.44712 0.169189C5.69314 0.169189 4.03163 0.495388 2.76817 1.08771C1.31384 1.76952 0.512695 2.74487 0.512695 3.83407V13.682C0.512695 13.9988 0.581024 14.3056 0.712529 14.5986C0.876623 14.9851 1.13505 15.3238 1.46038 15.5876C1.80746 15.9001 2.2453 16.1831 2.76812 16.4283C4.03158 17.0207 5.69309 17.3469 7.44707 17.3469C9.20062 17.3469 10.8625 17.0207 12.126 16.4283C12.6482 16.1834 13.0858 15.9005 13.4329 15.5883C13.7585 15.3243 14.0172 14.9852 14.1814 14.5984C14.2615 14.4204 14.3176 14.2371 14.3499 14.0497C15.735 13.8 16.7831 13.1021 17.3204 12.061C17.8997 10.9384 17.796 9.59175 17.0285 8.26896ZM2.15703 3.83407C2.15703 3.40525 2.65265 2.91694 3.48209 2.52797C4.51218 2.0451 5.95753 1.76822 7.44712 1.76822C8.93666 1.76822 10.3816 2.0451 11.4117 2.52797C12.2416 2.91694 12.7368 3.40525 12.7368 3.83407C12.7368 4.26271 12.2416 4.75096 11.4117 5.13993C10.3816 5.6228 8.93666 5.89983 7.44712 5.89983C5.95753 5.89983 4.51218 5.6228 3.48209 5.13993C2.65265 4.75096 2.15703 4.26271 2.15703 3.83407ZM15.8769 11.3568C15.1503 12.7654 12.5568 12.9899 10.2138 11.847C9.7088 11.6006 9.24099 11.3041 8.82639 10.9708C8.6602 11.0938 8.45344 11.1676 8.22803 11.1676C7.68126 11.1676 7.23808 10.7367 7.23808 10.205C7.23808 9.67331 7.68126 9.24222 8.22803 9.24222C8.77486 9.24222 9.21842 9.67331 9.21842 10.205C9.21842 10.2586 9.21255 10.3109 9.20392 10.3621C9.55916 10.6238 9.94737 10.8598 10.3614 11.0616C11.7627 11.7451 13.2536 11.9391 14.3811 11.6835V7.61071C15.7671 8.7734 16.4313 10.2823 15.8769 11.3568Z" fill="white"/>
</svg>
