<svg width="25" height="24" viewBox="0 0 25 24" fill="none" xmlns="http://www.w3.org/2000/svg">
<path d="M24.408 20.6445L18.6603 15.0507C19.6369 13.5378 20.2037 11.7495 20.2037 9.83038C20.2037 4.40089 15.6807 0 10.1016 0C4.52254 0 0 4.40089 0 9.83038C0 15.2601 4.52233 19.6605 10.1016 19.6605C12.2478 19.6605 14.2356 19.0076 15.8714 17.8981L21.5507 23.4253C21.9453 23.8089 22.4626 24 22.9793 24C23.4967 24 24.0134 23.8089 24.4086 23.4253C25.1972 22.657 25.1972 21.4125 24.408 20.6445ZM10.1016 16.4757C6.33067 16.4757 3.27341 13.5007 3.27341 9.83079C3.27341 6.16088 6.33067 3.18572 10.1016 3.18572C13.8728 3.18572 16.9298 6.16088 16.9298 9.83079C16.9298 13.5007 13.8728 16.4757 10.1016 16.4757Z" fill="#42424C"/>
</svg>
