<svg width="22" height="22" viewBox="0 0 22 22" fill="none" xmlns="http://www.w3.org/2000/svg">
<path d="M10.9872 8.9395C11.4265 8.9395 11.7825 9.29552 11.7825 9.7348C11.7825 10.1741 11.4265 10.5301 10.9872 10.5301C10.548 10.5301 10.192 10.1741 10.192 9.7348C10.192 9.29552 10.548 8.9395 10.9872 8.9395ZM13.7707 9.7348C13.7707 10.1741 14.1267 10.5301 14.5659 10.5301C15.0052 10.5301 15.3612 10.1741 15.3612 9.7348C15.3612 9.29552 15.0052 8.9395 14.5659 8.9395C14.1267 8.9395 13.7707 9.29552 13.7707 9.7348ZM6.61331 9.7348C6.61331 10.1741 6.96931 10.5301 7.40857 10.5301C7.84783 10.5301 8.20383 10.1741 8.20383 9.7348C8.20383 9.29552 7.84783 8.9395 7.40857 8.9395C6.96931 8.9395 6.61331 9.29552 6.61331 9.7348ZM20.5071 17.1933C21.4378 18.124 21.4378 19.6376 20.5076 20.5679C20.0425 21.0329 19.4315 21.2656 18.8206 21.2656C18.2097 21.2656 17.5986 21.0329 17.1336 20.5679L12.768 16.2119C12.6753 16.1193 12.607 16.0054 12.5689 15.8799L11.618 12.7495C11.5337 12.4719 11.6072 12.1706 11.8097 11.9629C12.0122 11.7554 12.3117 11.6746 12.5913 11.752L15.8011 12.6411C15.9333 12.6777 16.0536 12.7478 16.1507 12.8447L20.5071 17.1933ZM14.0327 15.2268L16.9787 18.1664L18.1036 17.0415L15.175 14.1183L13.5602 13.6709L14.0327 15.2268ZM19.3829 18.3185L19.2294 18.1652L18.1047 19.29L18.2577 19.4425C18.5683 19.7533 19.0728 19.7533 19.3829 19.4431C19.693 19.1331 19.693 18.6285 19.3829 18.3185V18.3185ZM11.4694 17.3877C11.3224 17.3941 11.1736 17.3974 11.027 17.3974C9.74822 17.3974 8.51712 17.1593 7.36803 16.6897C7.17232 16.6098 6.95269 16.6111 6.75791 16.6933L3.13683 18.2219L4.35691 15.3316C4.4762 15.0491 4.4223 14.7229 4.2182 14.4936C3.05373 13.1854 2.43818 11.6201 2.43818 9.96734C2.43818 5.84853 6.29116 2.49753 11.027 2.49753C15.7629 2.49753 19.6158 5.84853 19.6158 9.96734C19.6158 10.9441 19.376 11.9247 18.9029 12.8817C18.7083 13.2755 18.8697 13.7525 19.2634 13.9471C19.6572 14.1418 20.1342 13.9804 20.3288 13.5866C20.9111 12.4084 21.2064 11.1907 21.2064 9.96734C21.2064 4.97136 16.64 0.906921 11.027 0.906921C5.4142 0.906921 0.847656 4.97136 0.847656 9.96734C0.847656 11.8531 1.48697 13.6389 2.70208 15.162L0.910252 19.4066C0.784439 19.7047 0.85185 20.0494 1.08064 20.2782C1.23286 20.4304 1.43618 20.5112 1.64307 20.5112C1.7473 20.5112 1.85245 20.4907 1.95217 20.4486L7.07882 18.2843C8.32918 18.7514 9.65581 18.988 11.027 18.988C11.1966 18.988 11.3689 18.9841 11.539 18.9768C11.9778 18.9575 12.3179 18.5863 12.2987 18.1475C12.2796 17.7087 11.9075 17.3674 11.4694 17.3877V17.3877Z" fill="#8E8E94" stroke="#8E8E94" stroke-width="0.572589"/>
</svg>
