<svg width="40" height="40" viewBox="0 0 40 40" fill="none" xmlns="http://www.w3.org/2000/svg">
<rect width="40" height="40" rx="20" fill="#F1F2F5"/>
<path fill-rule="evenodd" clip-rule="evenodd" d="M13.25 25.4955V15.5269H11V27.8355C11 28.9832 12.3895 29.5558 13.1981 28.7413L19.0876 22.8091C19.5904 22.3026 20.4096 22.3026 20.9124 22.8091L26.8019 28.7413C27.6105 29.5558 29 28.9832 29 27.8355V12.3126C29 11.6025 28.4244 11.0269 27.7143 11.0269H12.2857C11.5756 11.0269 11 11.6025 11 12.3126V13.2769H13.25H14.8571H26.75V25.4955L22.5092 21.2239C21.1263 19.831 18.8737 19.831 17.4908 21.2239L13.25 25.4955Z" fill="#8E8E94"/>
</svg>
