<svg width="122" height="28" viewBox="0 0 122 28" fill="none" xmlns="http://www.w3.org/2000/svg">
<path d="M36.9826 19.3091C36.9826 15.4909 35.1209 13.6727 32.0778 13.0545V12.7636C34.6555 12.1818 36.016 10.4364 36.016 7.67273C36.016 3.34545 33.3667 1.01818 27.1731 1.01818H0V26.9818H27.4595C34.2975 26.9818 36.9826 24.4 36.9826 19.3091ZM23.4856 9.38182C23.4856 10.6545 22.7337 11.3091 21.2301 11.3091H11.7428V7.45455H21.2301C22.7337 7.45455 23.4856 8.10909 23.4856 9.38182ZM24.13 18.6909C24.13 20.1091 23.3066 20.8 21.6597 20.8H11.7428V16.5818H21.6597C23.3066 16.5818 24.13 17.2727 24.13 18.6909Z" fill="#F54343"/>
<path d="M72.9865 1.01818L70.7311 9.63636C70.3372 11.2 69.9434 12.9818 69.5496 14.9818H69.2632C68.7978 12.9818 68.3682 11.2727 67.9744 9.81818L65.4683 1.01818H54.4415L51.9355 9.81818C51.5416 11.2727 51.112 12.9818 50.6466 14.9818H50.3602C49.9664 12.9818 49.5726 11.2364 49.1788 9.70909L46.9591 1.01818H34.6793L42.8062 26.9818H55.7304L58.4513 17.6364C58.9167 16.0727 59.3463 14.2909 59.8117 12.2909H60.0981C60.5635 14.2909 60.9931 16.0727 61.4586 17.6L64.2153 26.9818H76.8531L85.2305 1.01818H72.9865Z" fill="#F54343"/>
<path d="M102.202 6.43637C105.388 6.43637 107.143 7.27273 107.536 8.90909H120.998C120.568 2 114.768 0.0363632 102.417 0C89.9222 0.0363632 84.015 2 83.8718 8.76364C83.8718 11.4182 84.7668 13.3455 86.521 14.5455C88.2753 15.7091 90.9246 16.4364 94.3973 16.7636L104.887 17.7091C107.322 17.9636 108.217 18.3273 108.217 19.4909C108.217 20.8364 106.677 21.5273 102.846 21.5273C99.2305 21.5273 97.512 20.7273 96.9392 18.4364H83.2631C83.4422 23.5273 86.1988 26.1455 91.6406 27.2C94.3615 27.7455 98.0132 28 102.596 28C107.322 28 111.045 27.7455 113.802 27.2364C116.558 26.7636 118.599 25.8545 119.959 24.5091C121.32 23.1636 122 21.2364 122 18.7273C122 13.4909 118.563 11.2364 111.546 10.6909L100.519 9.85455C98.049 9.67273 97.2256 9.27273 97.2256 8.29091C97.2256 7.09091 98.586 6.43637 102.202 6.43637Z" fill="#F54343"/>
</svg>
