<svg width="26" height="31" viewBox="0 0 26 31" fill="none" xmlns="http://www.w3.org/2000/svg">
<path fill-rule="evenodd" clip-rule="evenodd" d="M22.0001 15.1561C22.0001 17.7005 23.1148 20.1023 25.0588 21.7454C25.5705 22.1838 25.8572 22.8061 25.8572 23.4644C25.8572 24.7051 24.848 25.7144 23.6072 25.7144H2.39283C1.15211 25.7144 0.142822 24.7051 0.142822 23.4644C0.142822 22.8061 0.429538 22.1838 0.929684 21.7557C2.88527 20.1022 3.99999 17.7005 3.99999 15.1561V11.5715C3.99999 7.04704 7.35958 3.30173 11.7143 2.6743V1.28572C11.7143 0.574717 12.2903 0 13 0C13.7098 0 14.2858 0.574717 14.2858 1.28572V2.6743C18.6392 3.30173 22.0001 7.04704 22.0001 11.5715V15.1561ZM17.7238 27.0001C17.2763 29.1974 15.3285 30.8572 13 30.8572C10.6716 30.8572 8.72373 29.1974 8.2763 27.0001H17.7238Z" fill="#42424C"/>
</svg>
