<svg width="22" height="22" viewBox="0 0 22 22" fill="none" xmlns="http://www.w3.org/2000/svg">
<path fill-rule="evenodd" clip-rule="evenodd" d="M18.0257 2.94251V6.97158L19.5007 8.413C19.9027 8.80593 19.9099 9.4503 19.5169 9.85239C19.124 10.2545 18.4807 10.2626 18.0776 9.86868L11.4091 3.34766L3.49357 11.0861H4.79246C5.35436 11.0861 5.8104 11.5422 5.8104 12.1041V18.7208C5.8104 19.0018 6.03842 19.2298 6.31937 19.2298H8.86421C9.42612 19.2298 9.88215 19.6858 9.88215 20.2477C9.88215 20.8097 9.42612 21.2657 8.86421 21.2657H6.31937C4.91665 21.2657 3.77452 20.1236 3.77452 18.7208V13.1221H2.24761C1.40578 13.1221 0.720703 12.437 0.720703 11.5951C0.720703 11.192 0.885609 10.795 1.17165 10.509L10.6975 1.19672C11.0925 0.810913 11.7246 0.809895 12.1206 1.19672L15.9898 4.98046V2.94251C15.9898 2.3806 16.4458 1.92456 17.0077 1.92456C17.5696 1.92456 18.0257 2.3806 18.0257 2.94251ZM14.2721 19.1662V14.4582H18.98V19.1662H14.2721ZM12.1726 13.6312C12.1726 12.9284 12.7423 12.3587 13.445 12.3587H19.8071C20.5098 12.3587 21.0795 12.9284 21.0795 13.6312V19.9933C21.0795 20.696 20.5098 21.2657 19.8071 21.2657H13.445C12.7423 21.2657 12.1726 20.696 12.1726 19.9933V13.6312Z" fill="#F54343"/>
</svg>
