<svg width="30" height="32" viewBox="0 0 30 32" fill="none" xmlns="http://www.w3.org/2000/svg">
<path d="M4.71295 27.2404L4.71302 27.2412C4.82414 28.4604 5.38344 29.5867 6.28762 30.4122C7.1918 31.2377 8.36424 31.6924 9.58853 31.6924H20.4115C22.9598 31.6924 25.0573 29.7934 25.287 27.274C25.354 26.5389 24.8125 25.8887 24.0774 25.8216L24.0638 25.971L24.0774 25.8216C23.3417 25.7546 22.6921 26.2962 22.6251 27.0312L22.7745 27.0448L22.6251 27.0312C22.522 28.1632 21.5727 29.0195 20.4115 29.0195H9.58853C8.43381 29.0195 7.48447 28.1553 7.3756 27.0067C7.37556 27.0063 7.37552 27.0059 7.37548 27.0055L5.95707 8.6161H24.0429L23.042 21.5921L23.1916 21.6037L23.042 21.5922C22.9853 22.3281 23.5359 22.9706 24.2718 23.0274L24.2719 23.0274C24.3067 23.0301 24.3413 23.0314 24.3758 23.0314C25.0674 23.0314 25.653 22.4987 25.707 21.7977L26.7238 8.6161H27.8136C28.5517 8.6161 29.15 8.01778 29.15 7.27966C29.15 6.54155 28.5517 5.94322 27.8136 5.94322H20.7856V4.72882C20.7856 2.68336 19.1217 1.01949 17.0763 1.01949H12.9237C10.8783 1.01949 9.21441 2.68336 9.21441 4.72882V5.94322H2.18644C1.44833 5.94322 0.85 6.54155 0.85 7.27966C0.85 8.01778 1.44833 8.6161 2.18644 8.6161H3.27624L4.71147 27.2225L4.71148 27.2226L4.71295 27.2404ZM18.1127 5.94322H11.8873V4.72882C11.8873 4.15746 12.3524 3.69238 12.9237 3.69238H17.0763C17.6476 3.69238 18.1127 4.15746 18.1127 4.72882V5.94322Z" fill="#8E8E94" stroke="#8E8E94" stroke-width="0.3"/>
</svg>
