<svg xmlns="http://www.w3.org/2000/svg" viewBox="0 0 797.1 260.79"><defs><style>.cls-1{opacity:0.5;}.cls-2{fill:#F54343;}.cls-3{fill:#fff;}.cls-4{font-size:190px;fill:#F54343;font-family:Helvetica-Bold, Helvetica;font-weight:700;}</style></defs><g id="Слой_2" data-name="Слой 2"><path class="cls-2" d="M211.26,260.79H-444.06a.31.31,0,0,1-.31-.31V.31a.31.31,0,0,1,.31-.31H211.09a23,23,0,0,1,23,23v81.5A23.14,23.14,0,0,1,211,127.69l-11.64,0a.31.31,0,0,0-.31.31l.1,5.45a.32.32,0,0,0,.31.3l11.62.06a23.12,23.12,0,0,1,23,23.13v80.93A22.87,22.87,0,0,1,211.26,260.79Z"/></g><g id="Слой_3" data-name="Слой 3"><polygon class="cls-3" points="52.28 16.55 160.94 16.55 177.14 51.53 156.42 84.94 174.64 117.17 177.05 117.17 176.92 112.33 191.36 112.33 191.49 117.17 199.74 117.17 200.25 144.69 191.83 144.69 191.83 149.57 176.71 149.57 176.71 144.07 156.42 144.07 151.78 137.02 144.05 137.02 174.13 193.8 157.89 193.8 133.39 149.22 114.83 149.22 102.28 190.82 123.47 190.82 123.47 201.48 106.58 201.48 92.35 246 58.42 245.38 80.8 171.57 61.54 171.57 61.54 130.18 98.34 130.18 98.25 102.88 139.2 103.07 139.39 112.27 153.59 112.31 140.95 92.16 98.24 92.04 52.28 16.55"/><text class="cls-4" transform="translate(275.59 201.06)">BWS</text></g></svg>