<svg width="47" height="47" viewBox="0 0 47 47" fill="none" xmlns="http://www.w3.org/2000/svg">
<g clip-path="url(#clip0)">
<path d="M11.9069 0.731079C10.332 0.731079 9.04346 2.01963 9.04346 3.59453V43.6828C9.04346 45.2578 10.332 46.5463 11.9069 46.5463H40.5414C42.1163 46.5463 43.4049 45.2578 43.4049 43.6828V12.1849L31.9511 0.731079H11.9069Z" fill="#E2E5E7"/>
<path d="M34.8146 12.1849H43.405L31.9512 0.731079V9.32143C31.9512 10.8963 33.2397 12.1849 34.8146 12.1849Z" fill="#B0B7BD"/>
<path d="M43.4048 20.775L34.8145 12.1847H43.4048V20.775Z" fill="#CAD1D8"/>
<path d="M37.6773 37.9559C37.6773 38.7433 37.0331 39.3876 36.2456 39.3876H4.74764C3.96019 39.3876 3.31592 38.7433 3.31592 37.9559V23.6386C3.31592 22.8512 3.96019 22.2069 4.74764 22.2069H36.2456C37.0331 22.2069 37.6773 22.8512 37.6773 23.6386V37.9559Z" fill="#F54343"/>
<path d="M9.55713 27.8584C9.55713 27.4805 9.85493 27.0681 10.3346 27.0681H12.979C14.4679 27.0681 15.808 28.0646 15.808 29.9745C15.808 31.7842 14.4679 32.7922 12.979 32.7922H11.0676V34.3041C11.0676 34.808 10.7469 35.0929 10.3346 35.0929C9.95658 35.0929 9.55713 34.808 9.55713 34.3041V27.8584ZM11.0676 28.5099V31.3619H12.979C13.7464 31.3619 14.3534 30.6847 14.3534 29.9745C14.3534 29.1742 13.7464 28.5099 12.979 28.5099H11.0676Z" fill="white"/>
<path d="M18.0506 35.0934C17.6726 35.0934 17.2603 34.8872 17.2603 34.3847V27.8818C17.2603 27.4709 17.6726 27.1716 18.0506 27.1716H20.6721C25.9036 27.1716 25.789 35.0934 20.7751 35.0934H18.0506ZM18.7722 28.569V33.6974H20.6721C23.7631 33.6974 23.9006 28.569 20.6721 28.569H18.7722Z" fill="white"/>
<path d="M27.645 28.6606V30.4803H30.5643C30.9767 30.4803 31.389 30.8927 31.389 31.2921C31.389 31.6701 30.9767 31.9793 30.5643 31.9793H27.645V34.3832C27.645 34.7841 27.3601 35.0919 26.9593 35.0919C26.4553 35.0919 26.1475 34.7841 26.1475 34.3832V27.8803C26.1475 27.4694 26.4567 27.1702 26.9593 27.1702H30.9781C31.4821 27.1702 31.7799 27.4694 31.7799 27.8803C31.7799 28.2468 31.4821 28.6592 30.9781 28.6592H27.645V28.6606Z" fill="white"/>
<path d="M36.2462 39.3878H9.04346V40.8195H36.2462C37.0337 40.8195 37.678 40.1752 37.678 39.3878V37.9561C37.678 38.7435 37.0337 39.3878 36.2462 39.3878Z" fill="#CAD1D8"/>
</g>
<defs>
<clipPath id="clip0">
<rect width="45.8152" height="45.8152" fill="white" transform="translate(0.452637 0.730957)"/>
</clipPath>
</defs>
</svg>
